<?xml version="1.0" encoding="UTF-8" standalone="no"?><!DOCTYPE svg PUBLIC "-//W3C//DTD SVG 1.1//EN" "http://www.w3.org/Graphics/SVG/1.1/DTD/svg11.dtd">
<svg width="100%" height="100%" viewBox="0 0 256 256" version="1.1"
  xmlns="http://www.w3.org/2000/svg"
  xmlns:xlink="http://www.w3.org/1999/xlink" xml:space="preserve"
  xmlns:serif="http://www.serif.com/" style="fill-rule:evenodd;clip-rule:evenodd;stroke-linecap:round;">
  <path d="M195.85,134.295c-0.184,1.908 -0.447,3.807 -0.79,5.693c-0.296,1.629 0.787,3.192 2.416,3.488c1.629,0.296 3.192,-0.787 3.487,-2.416c0.373,-2.05 0.659,-4.116 0.859,-6.19c0.159,-1.648 -1.05,-3.115 -2.699,-3.273c-1.648,-0.159 -3.115,1.05 -3.273,2.698Z" style="fill:#b1b1b0;fill-opacity:0.1;"/>
  <path d="M187.371,161.261c-0.941,1.669 -1.952,3.299 -3.03,4.884c-0.931,1.369 -0.575,3.236 0.794,4.167c1.369,0.932 3.236,0.576 4.167,-0.793c1.172,-1.724 2.272,-3.495 3.295,-5.31c0.814,-1.442 0.303,-3.274 -1.139,-4.087c-1.442,-0.813 -3.273,-0.303 -4.087,1.139Z" style="fill:#b1b1b0;fill-opacity:0.2;"/>
  <path d="M168.473,182.63c-1.541,1.138 -3.131,2.211 -4.763,3.217c-1.409,0.868 -1.849,2.718 -0.98,4.127c0.868,1.41 2.718,1.849 4.127,0.981c1.775,-1.093 3.503,-2.26 5.179,-3.497c1.332,-0.984 1.616,-2.863 0.633,-4.196c-0.984,-1.332 -2.863,-1.615 -4.196,-0.632Z" style="fill:#b1b1b0;fill-opacity:0.3;"/>
  <path d="M142.325,194.434c-1.874,0.403 -3.764,0.727 -5.665,0.973c-1.642,0.211 -2.803,1.716 -2.591,3.359c0.212,1.642 1.717,2.803 3.359,2.591c2.067,-0.266 4.122,-0.619 6.159,-1.058c1.619,-0.348 2.65,-1.945 2.302,-3.563c-0.349,-1.619 -1.945,-2.651 -3.564,-2.302Z" style="fill:#b1b1b0;fill-opacity:0.4;"/>
  <path d="M113.9,194.494c-1.875,-0.396 -3.733,-0.87 -5.569,-1.421c-1.586,-0.476 -3.26,0.425 -3.736,2.011c-0.476,1.586 0.425,3.26 2.011,3.736c1.996,0.599 4.016,1.114 6.055,1.545c1.62,0.342 3.213,-0.696 3.555,-2.316c0.342,-1.62 -0.696,-3.213 -2.316,-3.555Z" style="fill:#b1b1b0;fill-opacity:0.5;"/>
  <path d="M87.963,182.992c-1.552,-1.124 -3.056,-2.314 -4.509,-3.564c-1.254,-1.081 -3.15,-0.939 -4.23,0.316c-1.081,1.255 -0.939,3.151 0.316,4.231c1.579,1.36 3.215,2.653 4.902,3.875c1.341,0.972 3.218,0.672 4.19,-0.668c0.971,-1.341 0.672,-3.218 -0.669,-4.19Z" style="fill:#b1b1b0;fill-opacity:0.6;"/>
  <path d="M68.742,161.564c-0.95,-1.664 -1.829,-3.368 -2.636,-5.107c-0.698,-1.502 -2.483,-2.155 -3.985,-1.458c-1.502,0.698 -2.155,2.483 -1.457,3.985c0.877,1.89 1.834,3.743 2.866,5.553c0.82,1.438 2.654,1.94 4.092,1.119c1.438,-0.82 1.94,-2.654 1.12,-4.092Z" style="fill:#b1b1b0;fill-opacity:0.7;"/>
  <path d="M60.099,134.374c-0.185,-1.908 -0.29,-3.822 -0.316,-5.739c-0.021,-1.656 -1.383,-2.982 -3.039,-2.96c-1.656,0.022 -2.982,1.383 -2.96,3.039c0.027,2.084 0.142,4.166 0.343,6.24c0.161,1.648 1.628,2.856 3.276,2.696c1.648,-0.16 2.856,-1.628 2.696,-3.276Z" style="fill:#b1b1b0;fill-opacity:0.8;"/>
  <path d="M63.303,106.132c0.608,-1.817 1.292,-3.608 2.051,-5.369c0.655,-1.521 -0.048,-3.287 -1.569,-3.942c-1.521,-0.655 -3.287,0.048 -3.942,1.569c-0.825,1.914 -1.568,3.862 -2.23,5.837c-0.526,1.57 0.322,3.272 1.892,3.797c1.571,0.526 3.272,-0.322 3.798,-1.892Z" style="fill:#b1b1b0;fill-opacity:0.9;"/>
  <path d="M77.789,81.597c1.298,-1.41 2.654,-2.766 4.066,-4.063c1.219,-1.12 1.299,-3.019 0.179,-4.239c-1.12,-1.219 -3.02,-1.299 -4.239,-0.179c-1.535,1.411 -3.01,2.884 -4.421,4.417c-1.121,1.219 -1.042,3.118 0.176,4.239c1.218,1.122 3.118,1.043 4.239,-0.175Z" style="fill:#b1b1b0;"/>
  <g id="g200">
    <g id="g8213">
      <path id="path4503" d="M120.739,78.384c-7.32,-0.001 -13.253,-5.936 -13.252,-13.256c0.001,-7.32 5.936,-13.253 13.256,-13.252l17.428,-0c7.32,0.001 13.253,5.935 13.252,13.255c-0.001,7.32 -5.936,13.254 -13.256,13.253l-17.428,-0Z" style="fill:#ffd468;fill-rule:nonzero;stroke:#010101;stroke-width:5.38px;"/>
      <path id="path4497" d="M144.963,45.532l-6.315,6.352l-19.715,0.078l-6.747,-6.56m0,-0c-2.595,-2.987 -2.278,-7.512 0.709,-10.107c2.987,-2.596 7.512,-2.278 10.108,0.709l5.637,5.694l5.705,-5.788c2.657,-2.932 7.188,-3.155 10.12,-0.498c2.932,2.657 3.155,7.188 0.498,10.12" style="fill:#ffd468;fill-rule:nonzero;stroke:#010101;stroke-width:5.38px;"/>
      <path id="path4348" d="M105.989,59.073c-0.979,1.98 -2.522,3.053 -6.107,6.146c4.407,3.708 5.308,4.193 6.199,6.187l-0.043,-6.166l-0.049,-6.167Z" style="fill:#010101;fill-rule:nonzero;"/>
      <path id="path4359" d="M121.065,51.876l0,26.508" style="fill:none;fill-rule:nonzero;stroke:#010101;stroke-width:6.99px;stroke-linecap:butt;"/>
      <path id="path4359-8" d="M133.319,51.876l0,26.508" style="fill:none;fill-rule:nonzero;stroke:#010101;stroke-width:6.99px;stroke-linecap:butt;"/>
      <g id="g7824">
        <path id="path7806" d="M145.343,61.707c-0,1.48 -1.2,2.68 -2.68,2.68c-1.48,-0 -2.679,-1.2 -2.679,-2.68c-0,-1.48 1.199,-2.68 2.679,-2.68c1.48,0 2.68,1.2 2.68,2.68" style="fill-rule:nonzero;"/>
      </g>
    </g>
  </g>
</svg>
